<svg width="15" height="15" viewBox="0 0 15 15" fill="none" xmlns="http://www.w3.org/2000/svg">
<path d="M6.56225 12.1866C6.27319 12.1878 5.99286 12.0876 5.77007 11.9035L1.51163 8.24159C1.41951 8.16144 1.36208 8.04868 1.35141 7.92704C1.34075 7.8054 1.37768 7.68436 1.45444 7.5894L2.44319 6.37909C2.48285 6.33047 2.53187 6.29031 2.58734 6.26099C2.64282 6.23167 2.70361 6.21379 2.76612 6.2084C2.82863 6.203 2.89159 6.21022 2.95126 6.22961C3.01093 6.249 3.0661 6.28017 3.1135 6.32128L6.43725 9.2069L11.781 3.34096C11.8641 3.2495 11.98 3.19457 12.1035 3.18814C12.2269 3.1817 12.3479 3.22427 12.4401 3.30659L13.6051 4.35221C13.651 4.39345 13.6884 4.44337 13.7151 4.49909C13.7417 4.55482 13.757 4.61526 13.7602 4.67694C13.7634 4.73862 13.7544 4.80033 13.7337 4.85851C13.7129 4.91669 13.6809 4.9702 13.6394 5.01596L7.4935 11.7719C7.37566 11.902 7.23197 12.0061 7.07162 12.0775C6.91127 12.1489 6.73778 12.186 6.56225 12.1866Z" fill="#9123FE"/>
</svg>
