<svg width="15" height="15" viewBox="0 0 15 15" fill="none" xmlns="http://www.w3.org/2000/svg">
<path d="M6.56225 12.1876C6.27319 12.1888 5.99286 12.0886 5.77007 11.9044L1.51163 8.24256C1.41951 8.16241 1.36208 8.04965 1.35141 7.92801C1.34075 7.80637 1.37768 7.68534 1.45444 7.59038L2.44319 6.38006C2.48285 6.33145 2.53187 6.29129 2.58734 6.26197C2.64282 6.23265 2.70361 6.21476 2.76612 6.20937C2.82863 6.20398 2.89159 6.21119 2.95126 6.23058C3.01093 6.24997 3.0661 6.28115 3.1135 6.32225L6.43725 9.20788L11.781 3.34194C11.8641 3.25048 11.98 3.19555 12.1035 3.18911C12.2269 3.18268 12.3479 3.22525 12.4401 3.30756L13.6051 4.35319C13.651 4.39443 13.6884 4.44434 13.7151 4.50007C13.7417 4.5558 13.757 4.61624 13.7602 4.67792C13.7634 4.7396 13.7544 4.8013 13.7337 4.85948C13.7129 4.91766 13.6809 4.97117 13.6394 5.01694L7.4935 11.7729C7.37566 11.903 7.23197 12.007 7.07162 12.0784C6.91127 12.1498 6.73778 12.187 6.56225 12.1876Z" fill="#14DFA1"/>
</svg>
